<svg width="252" height="174" viewBox="0 0 252 174" fill="none" xmlns="http://www.w3.org/2000/svg">
<path d="M197.171 14.2024C246.681 -11.5957 262.422 -1.569 244.392 44.2823C226.363 90.1337 219.896 122.057 224.99 140.053C230.084 158.048 230.566 180.785 226.436 208.265C222.306 235.744 203.251 267.477 169.273 303.464C135.294 339.452 92.6379 348.762 41.3034 331.395C-10.0312 314.029 -45.7273 286.114 -65.785 247.651C-85.8427 209.188 -73.5951 177.186 -29.0423 151.645C15.5106 126.104 33.9108 96.6832 26.1584 63.3835C18.4059 30.0839 32.5925 20.0116 68.718 33.1667C104.843 46.3219 147.661 40.0004 197.171 14.2024Z" fill="#F5C13A"/>
</svg>
