<svg width="360" height="538" viewBox="0 0 360 538" fill="none" xmlns="http://www.w3.org/2000/svg">
<path d="M378.939 311.16C395.183 346.268 386.876 370.03 354.021 382.447C321.165 394.863 296.431 410.276 279.818 428.687C263.206 447.097 244.009 464.651 222.228 481.349C200.447 498.047 174.236 513.674 143.595 528.231C112.955 542.789 83.7904 541.076 56.1028 523.094C28.4153 505.111 6.44987 480.921 -9.79348 450.522C-26.0368 420.124 -29.3593 386.942 -19.761 350.978C-10.1626 315.013 -12.5622 282.688 -26.9597 254.002C-41.3573 225.316 -45.4181 195.132 -39.1423 163.449C-32.8664 131.766 -19.0227 105.006 2.38904 83.1706C23.8007 61.335 45.7662 38.8572 68.2854 15.7372C90.8045 -7.38287 115.908 -5.02805 143.595 22.8016C171.283 50.6313 195.094 67.5432 215.029 73.5373C234.964 79.5314 265.605 76.7484 306.952 65.1884C348.299 53.6284 369.895 67.5432 371.741 106.933C373.586 146.323 371.187 181.431 364.542 212.258C357.897 243.084 362.696 276.052 378.939 311.16Z" fill="#F5C13A"/>
</svg>
